# xmcd
#
# Track frame offsets: 
#        150
#        11555
#        26435
#        36187
#        49287
#        61432
#        73927
#        85780
#        98100
#        109925
#        121405
#        132142
#        143890
#        158440
#        171702
#        182095
#        195472
#        206182
#        216662
#        226507
#        236905
#        247200
#        258207
#        277952
#        292197
#
# Disc length: 4059 seconds
#
# Revision: 0
# Processed by: cddbd v1.5.2PL0 Copyright (c) Steve Scherf et al.
# Submitted via: ExactAudioCopy v1.0b1
#
DISCID=7e0fd919
DTITLE=Various Artist - The Complete D Singles Collection - Volume 6 [CD 1)
DYEAR=2002
DGENRE=Country
TTITLE0=Dave Edge - Silly Notions
TTITLE1=Dave Edge - Gong Home By Myself
TTITLE2=La Fawn Paul - Hush Hush Affair
TTITLE3=LaFawn Paul - No Right To Love You
TTITLE4=Paul Wayne - I Go Out Of My Mind
TTITLE5=Paul Wayne - If You Were In My Shoes
TTITLE6=Paul Wayne - Looking Lonesome In The Face
TTITLE7=Warren Allen - When You Find Your Place In Life
TTITLE8=Warren Allen - My Castle
TTITLE9=Warren Allen - House built For Two
TTITLE10=Warren Allen - Gone Again
TTITLE11=Bill Price - I Think I Will Go Up On The Mountain
TTITLE12=Bill Price - This Old Lonesome Town
TTITLE13=Bill Price - I'll Take My Chances With You
TTITLE14=Bill Price - Going Back To Charlotte
TTITLE15=Bob Chesnutt - I Can Feel You Don't Want Me Around 
TTITLE16=Bob Chesnutt - Building On Our Love
TTITLE17=Lowell Knipp - Blue Walls
TTITLE18=Lowell Knipp - Walk Through This World With Me
TTITLE19=Lowell Knipp - It's A Lonesome Old Town
TTITLE20=Lowell Knipp - Tears
TTITLE21=The Tribesmen - Pow-Wow
TTITLE22=The Tribesmen - Osceola
TTITLE23=The Tribesmen - Seminole
TTITLE24=The Tribesmen - Josie Billie (The Seminole Medicine Man)
EXTD=
EXTT0=
EXTT1=
EXTT2=
EXTT3=
EXTT4=
EXTT5=
EXTT6=
EXTT7=
EXTT8=
EXTT9=
EXTT10=
EXTT11=
EXTT12=
EXTT13=
EXTT14=
EXTT15=
EXTT16=
EXTT17=
EXTT18=
EXTT19=
EXTT20=
EXTT21=
EXTT22=
EXTT23=
EXTT24=
PLAYORDER=
